<svg width="80" height="78" viewBox="0 0 80 78" fill="none" xmlns="http://www.w3.org/2000/svg">
<path d="M71.2956 11.5349C54.0653 -4.06044 27.535 -2.85532 12.038 14.2153C4.27065 22.7714 0.527345 32.5847 0.859337 42.1864C1.19125 51.7858 5.59811 61.2242 14.2254 69.0328C18.5425 72.9402 22.5404 75.194 26.3351 76.1381C30.1219 77.0804 33.7428 76.7276 37.3297 75.3605C44.5436 72.611 51.5928 65.7742 59.4455 57.1241C60.1495 56.3486 60.8487 55.5818 61.5404 54.8232C64.7084 51.349 67.7217 48.0444 70.3434 44.8397C73.5378 40.9352 76.124 37.2105 77.6826 33.5542C79.2375 29.9067 79.7622 26.3456 78.8602 22.7464C77.9566 19.1411 75.6061 15.4363 71.2956 11.5349Z" fill="#DCFFE8" stroke="white"/>
</svg>
