<svg width="82" height="65" viewBox="0 0 82 65" fill="none" xmlns="http://www.w3.org/2000/svg">
<path d="M0.499779 22.3597C0.499779 45.5797 19.2113 64.3981 42.2868 64.3981C53.8525 64.3981 63.6484 60.5767 70.5501 53.8825C77.4501 47.1899 81.4937 37.5911 81.4937 25.9647C81.4937 20.1468 80.481 15.6756 78.6332 12.2344C76.7892 8.8002 74.0956 6.35828 70.6721 4.6228C63.7868 1.13243 53.9792 0.50898 42.2868 0.50898C41.2385 0.50898 40.2001 0.506692 39.1726 0.504429C34.467 0.494063 29.9911 0.484204 25.8525 0.696869C20.8098 0.955981 16.309 1.54424 12.549 2.84679C8.79803 4.14623 5.80322 6.14972 3.7384 9.23427C1.67017 12.3239 0.499779 16.5508 0.499779 22.3597Z" fill="#FFD8D6" stroke="white"/>
</svg>
