<svg width="82" height="66" viewBox="0 0 82 66" fill="none" xmlns="http://www.w3.org/2000/svg">
<path d="M0.499779 22.9506C0.499779 46.1706 19.2113 64.9891 42.2868 64.9891C53.8525 64.9891 63.6484 61.1676 70.5501 54.4734C77.4501 47.7809 81.4937 38.1821 81.4937 26.5556C81.4937 20.7377 80.481 16.2666 78.6332 12.8253C76.7892 9.39115 74.0956 6.94922 70.6721 5.21374C63.7868 1.72337 53.9792 1.09992 42.2868 1.09992C41.2385 1.09992 40.2001 1.09763 39.1726 1.09537C34.467 1.08501 29.9911 1.07515 25.8525 1.28781C20.8098 1.54692 16.309 2.13518 12.549 3.43773C8.79803 4.73718 5.80322 6.74067 3.7384 9.82522C1.67017 12.9149 0.499779 17.1417 0.499779 22.9506Z" fill="#DDD6FF" stroke="white"/>
</svg>
